<svg width="68" height="83" viewBox="0 0 68 83" fill="none" xmlns="http://www.w3.org/2000/svg">
<path d="M60.1118 0.401489C61.8801 2.60713 62.9415 5.40301 62.9415 8.44328V8.50309V74.2695V74.3293C62.9415 77.3698 61.8801 80.1655 60.1118 82.3711C64.3737 82.1229 67.765 78.5846 67.765 74.2695V8.50309C67.765 4.18812 64.3737 0.64974 60.1118 0.401489Z" fill="#E00000"/>
<path d="M25.228 31.7392C25.4205 35.0194 25.9996 38.0887 26.8823 40.4064C27.8683 42.9942 28.9089 43.798 29.1764 43.798C29.444 43.798 30.4846 42.9942 31.4705 40.4064C32.3533 38.0887 32.9323 35.0194 33.1248 31.7392H25.228Z" fill="#E00000"/>
<path d="M29.1764 14.8569C28.9089 14.8569 27.8683 15.6607 26.8823 18.2485C25.9995 20.5662 25.4205 23.6356 25.228 26.9157H33.1248C32.9323 23.6356 32.3532 20.5662 31.4705 18.2485C30.4846 15.6607 29.444 14.8569 29.1764 14.8569Z" fill="#E00000"/>
<path d="M37.9563 26.9157H43.4452C42.6896 22.4317 39.8651 18.6416 35.9902 16.5645C37.0765 19.4297 37.7561 23.0382 37.9563 26.9157Z" fill="#E00000"/>
<path d="M20.3971 26.9157C20.5972 23.0382 21.2769 19.4297 22.3631 16.5645C18.4882 18.6416 15.6637 22.4317 14.9082 26.9157H20.3971Z" fill="#E00000"/>
<path d="M49.8915 0.386292H0.235352V82.3863H49.8915C54.4274 82.3863 58.1177 78.7452 58.1177 74.2696V8.50301C58.1177 4.02741 54.4274 0.386292 49.8915 0.386292V0.386292ZM36.4118 70.3275H21.9412V65.5039H36.4118V70.3275ZM41.2354 60.6804H17.1177V55.8569H41.2354V60.6804ZM29.1765 48.6216C18.5378 48.6216 9.88241 39.9662 9.88241 29.3275C9.88241 18.6887 18.5378 10.0334 29.1765 10.0334C39.8153 10.0334 48.4706 18.6887 48.4706 29.3275C48.4706 39.9662 39.8153 48.6216 29.1765 48.6216Z" fill="#E00000"/>
<path d="M37.9563 31.7392C37.7561 35.6167 37.0765 39.2252 35.9902 42.0903C39.8651 40.0133 42.6896 36.2232 43.4452 31.7392H37.9563Z" fill="#E00000"/>
<path d="M20.3971 31.7392H14.9082C15.6637 36.2232 18.4882 40.0133 22.3631 42.0903C21.2769 39.2252 20.5972 35.6167 20.3971 31.7392Z" fill="#E00000"/>
</svg>
