<svg width="78" height="83" viewBox="0 0 78 83" fill="none" xmlns="http://www.w3.org/2000/svg">
<g clip-path="url(#clip0)">
<path d="M28.1642 49.9571H16.3438V62.5133H28.1642V49.9571Z" fill="#E00000"/>
<path d="M44.5079 67.3178H32.6875V79.8741H44.5079V67.3178Z" fill="#E00000"/>
<path d="M11.8205 67.3178H0V79.8741H11.8205V67.3178Z" fill="#E00000"/>
<path d="M44.5079 49.9571H32.6875V62.5133H44.5079V49.9571Z" fill="#E00000"/>
<path d="M28.1642 32.596H16.3438V45.1522H28.1642V32.596Z" fill="#E00000"/>
<path d="M11.8205 49.9571H0V62.5133H11.8205V49.9571Z" fill="#E00000"/>
<path d="M28.1642 67.3178H16.3438V79.8741H28.1642V67.3178Z" fill="#E00000"/>
<path d="M11.8205 32.596H0V45.1522H11.8205V32.596Z" fill="#E00000"/>
<path d="M44.5079 32.596H32.6875V45.1522H44.5079V32.596Z" fill="#E00000"/>
<path d="M77.195 32.596H65.3745V45.1522H77.195V32.596Z" fill="#E00000"/>
<path d="M59.6875 8.62195V14.3831H55.1643V8.62195H22.0305V14.3831H17.5074V8.62195H0V27.7917H77.1949V8.62195H59.6875Z" fill="#E00000"/>
<path d="M60.8512 67.3178H49.0308V79.8741H60.8512V67.3178Z" fill="#E00000"/>
<path d="M77.195 49.9571H65.3745V62.5133H77.195V49.9571Z" fill="#E00000"/>
<path d="M77.195 67.3178H65.3745V79.8741H77.195V67.3178Z" fill="#E00000"/>
<path d="M60.8512 32.596H49.0308V45.1522H60.8512V32.596Z" fill="#E00000"/>
<path d="M60.8512 49.9571H49.0308V62.5133H60.8512V49.9571Z" fill="#E00000"/>
<path d="M22.0305 2.86102H17.5073V8.62216H22.0305V2.86102Z" fill="#E00000"/>
<path d="M59.6872 2.86102H55.1641V8.62216H59.6872V2.86102Z" fill="#E00000"/>
</g>
<defs>
<clipPath id="clip0">
<rect width="77.1949" height="82" fill="white" transform="translate(0 0.367554)"/>
</clipPath>
</defs>
</svg>
