<svg width="82" height="82" viewBox="0 0 82 82" fill="none" xmlns="http://www.w3.org/2000/svg">
<g clip-path="url(#clip0)">
<path d="M45.8235 68.4688V81.8416L53.0588 75.4102L60.2941 81.8416V68.4688C58.0999 69.5139 55.6466 70.1 53.0588 70.1C50.471 70.1 48.0177 69.5139 45.8235 68.4688Z" fill="#E00000"/>
<path d="M53.0588 65.2762C59.7187 65.2762 65.1176 59.8773 65.1176 53.2174C65.1176 46.5575 59.7187 41.1586 53.0588 41.1586C46.3989 41.1586 41 46.5575 41 53.2174C41 59.8773 46.3989 65.2762 53.0588 65.2762Z" fill="#E00000"/>
<path d="M0 0.158569V62.8645H39.2126C37.3 60.1279 36.1765 56.8018 36.1765 53.2174C36.1765 43.9085 43.7499 36.335 53.0588 36.335C62.3678 36.335 69.9412 43.9085 69.9412 53.2174C69.9412 56.8018 68.8176 60.1279 66.9051 62.8645H82V0.158569H0ZM28.9412 53.2174H14.4706V48.3939H28.9412V53.2174ZM31.3529 43.5703H14.4706V38.7468H31.3529V43.5703ZM38.5882 33.9233H14.4706V29.0997H38.5882V33.9233ZM67.5294 24.2762H14.4706V19.4527H67.5294V24.2762ZM67.5294 14.6292H14.4706V9.80563H67.5294V14.6292Z" fill="#E00000"/>
</g>
<defs>
<clipPath id="clip0">
<rect width="82" height="82" fill="white"/>
</clipPath>
</defs>
</svg>
