<svg width="85" height="85" viewBox="0 0 85 85" fill="none" xmlns="http://www.w3.org/2000/svg">
<g clip-path="url(#clip0)">
<path d="M42.5 50.0034C41.0863 50.0034 39.9402 48.8573 39.9402 47.4437V24.7203C28.5317 25.9969 19.6326 35.6998 19.6326 47.4437C19.6326 60.0529 29.8909 70.3111 42.5 70.3111C54.2438 70.3111 63.9467 61.4121 65.2234 50.0034H42.5Z" fill="#E00000"/>
<path d="M45.0596 44.8839H65.2232C64.0406 34.316 55.6275 25.9029 45.0596 24.7203V44.8839Z" fill="#E00000"/>
<path d="M69.0562 20.8872C67.8226 19.6536 66.5168 18.5188 65.1508 17.4816L67.2642 14.4044L69.5149 15.9502C69.9578 16.2543 70.4624 16.4002 70.9619 16.4002C71.7767 16.4002 72.5779 16.0119 73.0741 15.2894C73.8745 14.1241 73.5786 12.5305 72.4132 11.7304L68.054 8.73652C68.0535 8.73618 68.053 8.73567 68.0525 8.73532C68.052 8.73498 68.0514 8.73464 68.0509 8.7343L63.6919 5.74061C62.5265 4.94044 60.933 5.23618 60.1327 6.40137C59.3323 7.56672 59.6282 9.16024 60.7936 9.96041L63.0443 11.5061L60.8716 14.6696C57.488 12.7664 53.8306 11.4063 50.0084 10.6348V5.11945H51.459C52.8726 5.11945 54.0187 3.97338 54.0187 2.55973C54.0187 1.14608 52.8726 0 51.459 0H47.4487H37.5511H33.5409C32.1272 0 30.9811 1.14608 30.9811 2.55973C30.9811 3.97338 32.1272 5.11945 33.5409 5.11945H34.9914V10.6348C27.8226 12.0817 21.233 15.598 15.9436 20.8874C8.85026 27.9807 4.9436 37.4121 4.9436 47.4437C4.9436 57.4753 8.85026 66.9067 15.9436 74C23.0369 81.0933 32.4682 85 42.4999 85C52.5317 85 61.9629 81.0933 69.0562 74C76.1496 66.9067 80.0562 57.4753 80.0562 47.4437C80.0562 37.4121 76.1496 27.9807 69.0562 20.8872ZM42.4999 75.4304C27.0678 75.4304 14.5131 62.8756 14.5131 47.4435C14.5131 32.0114 27.068 19.4567 42.4999 19.4567C57.9318 19.4567 70.4868 32.0114 70.4868 47.4435C70.4868 62.8756 57.9318 75.4304 42.4999 75.4304ZM40.1108 5.11945H44.889V9.96433C44.0968 9.91485 43.3006 9.8872 42.4999 9.8872C41.6992 9.8872 40.903 9.91485 40.1108 9.96433V5.11945Z" fill="#E00000"/>
</g>
<defs>
<clipPath id="clip0">
<rect width="85" height="85" fill="white"/>
</clipPath>
</defs>
</svg>
