<svg width="82" height="83" viewBox="0 0 82 83" fill="none" xmlns="http://www.w3.org/2000/svg">
<g clip-path="url(#clip0)">
<path d="M41 0.491943C18.4805 0.491943 0 18.9725 0 41.4919C0 64.0114 18.4805 82.4919 41 82.4919C48.1745 82.4919 55.2383 80.5963 61.4243 77.0091L59.0126 72.8519C53.5585 76.0144 47.3293 77.6873 41 77.6873C21.1294 77.6873 4.80469 61.3626 4.80469 41.4919C4.80469 21.6213 21.1294 5.29663 41 5.29663C60.8706 5.29663 77.1953 21.6213 77.1953 41.4919C77.1953 47.8826 75.5231 54.123 72.3906 59.5446V53.6638H67.5859V68.0779H82V63.2732H75.7502C79.7853 56.8144 82 49.1438 82 41.4919C82 18.9725 63.5195 0.491943 41 0.491943Z" fill="#E00000"/>
<path d="M41 14.906C26.4289 14.906 14.4141 26.9209 14.4141 41.4919C14.4141 56.063 26.4289 68.0779 41 68.0779C55.5711 68.0779 67.5859 56.063 67.5859 41.4919C67.5859 26.9209 55.5711 14.906 41 14.906ZM57.8164 43.8943H38.5977V24.5154H43.4023V39.0896H57.8164V43.8943Z" fill="#E00000"/>
</g>
<defs>
<clipPath id="clip0">
<rect width="82" height="82" fill="white" transform="translate(0 0.491943)"/>
</clipPath>
</defs>
</svg>
