<svg width="85" height="85" viewBox="0 0 85 85" fill="none" xmlns="http://www.w3.org/2000/svg">
<path d="M72.5521 12.4479C64.5248 4.42083 53.8521 0 42.5 0C31.1479 0 20.4752 4.42083 12.4479 12.4479C4.42083 20.4752 0 31.1479 0 42.5C0 53.8521 4.42083 64.5248 12.4479 72.5521C20.4752 80.5792 31.1479 85 42.5 85C53.8521 85 64.5248 80.5792 72.5521 72.5521C80.5792 64.5248 85 53.8521 85 42.5C85 31.1479 80.5792 20.4752 72.5521 12.4479ZM78.3561 40.0098V44.9902H71.7101V40.0098H78.3561ZM20.0844 23.6061L15.385 18.9067L18.9067 15.385L23.6061 20.0844L20.0844 23.6061ZM23.6061 64.9156L18.9067 69.615L15.385 66.0933L20.0844 61.3939L23.6061 64.9156ZM60.0797 40.0098V44.9902H40.0098V24.9203H44.9902V40.0098H60.0797ZM44.9902 13.2899H40.0098V6.64395H44.9902V13.2899ZM40.0098 71.7101H44.9902V78.3561H40.0098V71.7101ZM61.3939 64.9156L64.9156 61.3939L69.615 66.0933L66.0933 69.615L61.3939 64.9156ZM64.9156 23.6061L61.3939 20.0844L66.0933 15.385L69.615 18.9067L64.9156 23.6061ZM13.2899 40.0098V44.9902H6.64395V40.0098H13.2899Z" fill="#E00000"/>
</svg>
