<svg width="84" height="84" viewBox="0 0 84 84" fill="none" xmlns="http://www.w3.org/2000/svg">
<path d="M79.0781 37.0781H74.1562C71.4379 37.0781 69.2344 39.2816 69.2344 42V56.7656H14.7656V42C14.7656 39.2816 12.5621 37.0781 9.84375 37.0781H4.92188C2.20352 37.0781 0 39.2816 0 42C0 44.718 2.20352 46.9219 4.92188 46.9219V71.5312H14.7656L19.6875 66.6094H64.3125L69.2344 71.5312H79.0781V46.9219C81.7965 46.9219 84 44.718 84 42C84 39.2816 81.7965 37.0781 79.0781 37.0781Z" fill="white"/>
<path d="M19.6875 46.9219H64.3125V51.8438H19.6875V46.9219Z" fill="white"/>
<path d="M9.84375 24.7734V32.1562C15.2727 32.1562 19.6875 36.571 19.6875 42H64.3125C64.3125 36.571 68.7273 32.1562 74.1562 32.1562V24.7734C74.1562 17.989 68.636 12.4688 61.8516 12.4688H22.1484C15.364 12.4688 9.84375 17.989 9.84375 24.7734ZM51.8438 18.8326L55.3237 22.3125L51.8438 25.7924L48.3638 22.3125L51.8438 18.8326ZM51.8438 28.6763L55.3237 32.1562L51.8438 35.6362L48.3638 32.1562L51.8438 28.6763ZM42 18.8326L45.4799 22.3125L42 25.7924L38.5201 22.3125L42 18.8326ZM42 28.6763L45.4799 32.1562L42 35.6362L38.5201 32.1562L42 28.6763ZM32.1562 18.8326L35.6362 22.3125L32.1562 25.7924L28.5123 22.3125L32.1562 18.8326ZM32.1562 28.6763L35.6362 32.1562L32.1562 35.6362L28.5123 32.1562L32.1562 28.6763Z" fill="white"/>
</svg>
