<svg width="82" height="83" viewBox="0 0 82 83" fill="none" xmlns="http://www.w3.org/2000/svg">
<g clip-path="url(#clip0)">
<path d="M51.0293 53.2065V70.6769C51.0293 73.1077 52.2401 75.3597 54.268 76.7004L63.1502 82.573L71.9641 76.6972C73.9776 75.3549 75.1797 73.1087 75.1797 70.6887V53.2065H51.0293Z" fill="#E00000"/>
<path d="M65.5517 48.5521V19.6345L46.4902 0.572998H6.82031V77.9187H48.517C47.0404 75.8918 46.2152 73.4255 46.2152 70.8366V48.5521H65.5517ZM47.9002 8.7911L57.3336 18.2245H47.9002V8.7911ZM22.8672 25.927H51.1096V30.741H22.8672V25.927ZM36.9883 49.9972H22.8672V45.1832H36.9883V49.9972ZM22.8672 40.3691V35.5551H51.1096V40.3691H22.8672Z" fill="#E00000"/>
</g>
<defs>
<clipPath id="clip0">
<rect width="82" height="82" fill="white" transform="translate(0 0.572998)"/>
</clipPath>
</defs>
</svg>
