<svg width="82" height="82" viewBox="0 0 82 82" fill="none" xmlns="http://www.w3.org/2000/svg">
<g clip-path="url(#clip0)">
<path d="M41.0001 57.9296C53.0531 57.9296 62.824 48.1587 62.824 36.1057C62.824 24.0527 53.0531 14.2818 41.0001 14.2818C28.9472 14.2818 19.1763 24.0527 19.1763 36.1057C19.1763 48.1587 28.9472 57.9296 41.0001 57.9296Z" fill="#E00000"/>
<path d="M66.644 10.622C59.7944 3.77232 50.6871 0 41 0C31.313 0 22.2057 3.77232 15.356 10.622C8.50621 17.4719 4.73389 26.5791 4.73389 36.2661C4.73389 53.356 16.6815 68.1102 33.2794 71.7057L41 82L48.7209 71.7056C65.3186 68.1101 77.2662 53.356 77.2662 36.2661C77.2662 26.5791 73.4939 17.4719 66.644 10.622ZM41 9.46771C55.6883 9.46771 67.638 21.4176 67.638 36.1057C67.638 50.7938 55.6883 62.7436 41 62.7436C26.3118 62.7436 14.3621 50.7938 14.3621 36.1057C14.3621 21.4176 26.3118 9.46771 41 9.46771Z" fill="#E00000"/>
</g>
<defs>
<clipPath id="clip0">
<rect width="82" height="82" fill="white"/>
</clipPath>
</defs>
</svg>
