<svg width="78" height="83" viewBox="0 0 78 83" fill="none" xmlns="http://www.w3.org/2000/svg">
<g clip-path="url(#clip0)">
<path d="M15.8309 67.9988C17.0799 67.9988 18.0925 66.9232 18.0925 65.5964C18.0925 64.2697 17.0799 63.1941 15.8309 63.1941C14.5819 63.1941 13.5693 64.2697 13.5693 65.5964C13.5693 66.9232 14.5819 67.9988 15.8309 67.9988Z" fill="#E00000"/>
<path d="M15.831 82.573C24.5593 82.573 31.662 74.868 31.662 65.5964C31.662 56.3248 24.5593 48.78 15.831 48.78C7.10268 48.78 0 56.3248 0 65.5964C0 74.868 7.10268 82.573 15.831 82.573ZM15.831 58.3894C19.5722 58.3894 22.6157 61.6223 22.6157 65.5964C22.6157 69.5706 19.5722 72.8035 15.831 72.8035C12.0897 72.8035 9.04627 69.5706 9.04627 65.5964C9.04627 61.6223 12.0897 58.3894 15.831 58.3894Z" fill="#E00000"/>
<path d="M56.69 48.78C60.4312 48.78 63.4747 45.5471 63.4747 41.573C63.4747 37.5989 60.4312 34.366 56.69 34.366C52.9487 34.366 49.9053 37.5989 49.9053 41.573C49.9053 45.5471 52.9487 48.78 56.69 48.78ZM54.4284 39.1707H58.9515V43.9753H54.4284V39.1707Z" fill="#E00000"/>
<path d="M54.042 67.9988H59.3381C60.0205 65.9531 61.5489 64.3296 63.4748 63.6046V51.121C61.5789 52.6454 59.2452 53.5847 56.69 53.5847C54.1347 53.5847 51.8011 52.6454 49.9053 51.121V63.6046C51.8311 64.3296 53.3594 65.9531 54.042 67.9988Z" fill="#E00000"/>
<path d="M36.1851 82.573H77.1948V0.572998H36.1851V82.573ZM45.3821 15.1472H47.6437C48.8915 15.1472 49.9052 14.0703 49.9052 12.7449V10.3425H63.4746V12.7449C63.4746 14.0703 64.4884 15.1472 65.7362 15.1472H67.9978V67.9988H65.7362C64.4884 67.9988 63.4746 69.0757 63.4746 70.4011V72.8035H49.9052V70.4011C49.9052 69.0757 48.8915 67.9988 47.6437 67.9988H45.3821V15.1472Z" fill="#E00000"/>
<path d="M63.4748 32.025V19.5414C61.549 18.8166 60.0207 17.1931 59.3381 15.1472H54.042C53.3596 17.1929 51.8312 18.8164 49.9053 19.5414V32.025C51.8012 30.5006 54.1349 29.5613 56.6901 29.5613C59.2454 29.5613 61.579 30.5006 63.4748 32.025Z" fill="#E00000"/>
<path d="M15.8309 43.9753C17.0799 43.9753 18.0925 42.8998 18.0925 41.573C18.0925 40.2462 17.0799 39.1707 15.8309 39.1707C14.5819 39.1707 13.5693 40.2462 13.5693 41.573C13.5693 42.8998 14.5819 43.9753 15.8309 43.9753Z" fill="#E00000"/>
<path d="M0 41.573C0 44.5056 0.74285 47.3096 2.05034 49.7842C4.26833 47.6018 6.96412 46.0063 9.91306 45.0264C9.37782 43.9962 9.04627 42.8307 9.04627 41.573C9.04627 37.5989 12.0897 34.366 15.831 34.366C19.5722 34.366 22.6157 37.5989 22.6157 41.573C22.6157 42.8307 22.2841 43.9962 21.7487 45.0264C24.6977 46.0063 27.3936 47.6018 29.6115 49.7842C30.9191 47.3096 31.662 44.5056 31.662 41.573C31.662 32.3014 24.5593 24.7566 15.831 24.7566C7.10268 24.7566 0 32.3014 0 41.573Z" fill="#E00000"/>
<path d="M15.8309 19.9519C17.0799 19.9519 18.0925 18.8763 18.0925 17.5496C18.0925 16.2228 17.0799 15.1472 15.8309 15.1472C14.5819 15.1472 13.5693 16.2228 13.5693 17.5496C13.5693 18.8763 14.5819 19.9519 15.8309 19.9519Z" fill="#E00000"/>
<path d="M15.831 0.572998C7.10268 0.572998 0 8.27796 0 17.5496C0 20.4822 0.74285 23.2862 2.05034 25.7608C4.26833 23.5783 6.96412 21.9828 9.91306 21.003C9.37782 19.9727 9.04627 18.8073 9.04627 17.5496C9.04627 13.5754 12.0897 10.3425 15.831 10.3425C19.5722 10.3425 22.6157 13.5754 22.6157 17.5496C22.6157 18.8073 22.2841 19.9727 21.7487 21.003C24.6977 21.9828 27.3936 23.5783 29.6115 25.7608C30.9191 23.2862 31.662 20.4822 31.662 17.5496C31.662 8.27796 24.5593 0.572998 15.831 0.572998Z" fill="#E00000"/>
</g>
<defs>
<clipPath id="clip0">
<rect width="77.1949" height="82" fill="white" transform="translate(0 0.572998)"/>
</clipPath>
</defs>
</svg>
