<svg width="82" height="83" viewBox="0 0 82 83" fill="none" xmlns="http://www.w3.org/2000/svg">
<g clip-path="url(#clip0)">
<path d="M51.2005 49.3673C49.8737 49.3673 48.7944 50.4468 48.7944 51.7735C48.7944 53.1002 49.8737 54.1797 51.2005 54.1797C52.5272 54.1797 53.6066 53.1002 53.6066 51.7735C53.6066 50.4468 52.5274 49.3673 51.2005 49.3673Z" fill="#E00000"/>
<path d="M41 12.5847C25.0158 12.5847 12.0117 25.5888 12.0117 41.573C12.0117 57.5572 25.0158 70.5613 41 70.5613C56.9842 70.5613 69.9883 57.5572 69.9883 41.573C69.9883 25.5888 56.9842 12.5847 41 12.5847ZM30.7996 24.1618C34.7757 24.1618 38.0104 27.3966 38.0104 31.3726C38.0104 35.3487 34.7757 38.5835 30.7996 38.5835C26.8236 38.5835 23.5888 35.3487 23.5888 31.3726C23.5888 27.3966 26.8234 24.1618 30.7996 24.1618ZM28.3489 57.6215L24.9515 54.2241L53.6511 25.5245L57.0485 28.9219L28.3489 57.6215ZM51.2004 58.9842C47.2243 58.9842 43.9896 55.7494 43.9896 51.7733C43.9896 47.7973 47.2243 44.5625 51.2004 44.5625C55.1764 44.5625 58.4112 47.7973 58.4112 51.7733C58.4112 55.7494 55.1766 58.9842 51.2004 58.9842Z" fill="#E00000"/>
<path d="M30.7997 33.7787C32.1265 33.7787 33.2058 32.6992 33.2058 31.3725C33.2058 30.0457 32.1265 28.9663 30.7997 28.9663C29.473 28.9663 28.3936 30.0457 28.3936 31.3725C28.3936 32.6992 29.4728 33.7787 30.7997 33.7787Z" fill="#E00000"/>
<path d="M69.9915 12.5815C62.2474 4.8378 51.9515 0.572998 41 0.572998C30.0485 0.572998 19.7526 4.8378 12.0085 12.5815C4.2648 20.3256 0 30.6215 0 41.573C0 52.5245 4.2648 62.8204 12.0085 70.5645C19.7526 78.3082 30.0485 82.573 41 82.573C51.9515 82.573 62.2474 78.3082 69.9915 70.5645C77.7352 62.8204 82 52.5245 82 41.573C82 30.6215 77.7352 20.3256 69.9915 12.5815ZM41 75.366C22.3665 75.366 7.20703 60.2065 7.20703 41.573C7.20703 22.9395 22.3665 7.78003 41 7.78003C59.6335 7.78003 74.793 22.9395 74.793 41.573C74.793 60.2065 59.6335 75.366 41 75.366Z" fill="#E00000"/>
</g>
<defs>
<clipPath id="clip0">
<rect width="82" height="82" fill="white" transform="translate(0 0.572998)"/>
</clipPath>
</defs>
</svg>
