<svg width="85" height="85" viewBox="0 0 85 85" fill="none" xmlns="http://www.w3.org/2000/svg">
<path d="M42.5 30.0488C35.6348 30.0488 30.0488 35.6348 30.0488 42.5C30.0488 49.3652 35.6348 54.9512 42.5 54.9512C49.3652 54.9512 54.9512 49.3652 54.9512 42.5C54.9512 35.6348 49.3652 30.0488 42.5 30.0488Z" fill="#E00000"/>
<path d="M85 49.5233V35.4769L73.4772 33.2079C72.8473 31.1142 72.0108 29.0956 70.9699 27.1744L77.3996 17.5296L67.4702 7.60019L57.8254 14.03C55.9043 12.9891 53.8858 12.1525 51.7919 11.5226L49.5233 0H35.4769L33.2079 11.5228C31.1142 12.1527 29.0956 12.9892 27.1744 14.0301L17.5296 7.60019L7.60019 17.5296L14.03 27.1744C12.9891 29.0956 12.1525 31.114 11.5226 33.2079L0 35.4767V49.5231L11.5228 51.7921C12.1527 53.8859 12.9892 55.9044 14.0301 57.8256L7.60019 67.4704L17.5296 77.3998L27.1744 70.97C29.0956 72.0109 31.114 72.8475 33.2079 73.4773L35.4767 85H49.5231L51.7921 73.4772C53.8859 72.8473 55.9044 72.0108 57.8256 70.9699L67.4704 77.3996L77.3998 67.4702L70.97 57.8254C72.0109 55.9043 72.8475 53.8858 73.4773 51.7919L85 49.5233ZM42.5 59.9316C32.8892 59.9316 25.0684 52.1108 25.0684 42.5C25.0684 32.8892 32.8892 25.0684 42.5 25.0684C52.1108 25.0684 59.9316 32.8892 59.9316 42.5C59.9316 52.1108 52.1108 59.9316 42.5 59.9316Z" fill="#E00000"/>
</svg>
