<svg width="82" height="83" viewBox="0 0 82 83" fill="none" xmlns="http://www.w3.org/2000/svg">
<g clip-path="url(#clip0)">
<path d="M73.3859 46.282L66.0432 38.9393C65.7365 38.9523 65.4287 38.9605 65.119 38.9605C53.2499 38.9605 43.5936 29.3043 43.5936 17.4351C43.5936 17.1376 43.6013 16.8416 43.6133 16.5469L41.0443 13.9778L8.7028 46.3195V77.755H0.0444336V82.5544H81.9552V77.755H73.3861V46.282H73.3859ZM25.5858 75.5627C25.5858 69.5173 29.0846 64.2746 34.1632 61.7507C32.8507 60.1941 32.0576 58.1861 32.0576 55.9955C32.0576 51.0648 36.069 47.0532 40.9998 47.0532C45.9305 47.0532 49.9421 51.0646 49.9421 55.9955C49.9421 58.1861 49.149 60.1941 47.8365 61.7507C52.9151 64.2748 56.4138 69.5175 56.4138 75.5627V77.755H51.6144V75.5627C51.6144 69.7098 46.8528 64.9482 40.9999 64.9482C35.1472 64.9482 30.3856 69.7098 30.3856 75.5627V77.755H25.5862V75.5627H25.5858Z" fill="#E00000"/>
<path d="M40.9997 60.138C43.284 60.138 45.1425 58.2796 45.1425 55.9952C45.1425 53.7109 43.284 51.8525 40.9997 51.8525C38.7154 51.8525 36.8569 53.7109 36.8569 55.9952C36.8569 58.2796 38.7154 60.138 40.9997 60.138Z" fill="#E00000"/>
<path d="M0 41.6672L3.39371 45.0609L41.0447 7.40992L44.591 10.9563C45.113 9.30617 45.8281 7.74112 46.7108 6.28866L41.0447 0.622498L25.0603 16.6069V6.97589H10.5453V31.1217L0 41.6672Z" fill="#E00000"/>
<path d="M71.6265 37.954L78.6061 44.9336L81.9998 41.5399L76.2889 35.829C74.8382 36.7134 73.275 37.4301 71.6265 37.954Z" fill="#E00000"/>
<path d="M48.2383 17.4351C48.2383 26.7432 55.8109 34.3159 65.1191 34.3159C74.4272 34.3159 81.9999 26.7432 81.9999 17.4351C81.9999 8.12699 74.4272 0.554321 65.1191 0.554321C55.8109 0.554321 48.2383 8.12699 48.2383 17.4351ZM63.5867 17.4199L70.3439 10.6627L73.7376 14.0565L63.5867 24.2075L56.5004 17.121L59.8941 13.7273L63.5867 17.4199Z" fill="#E00000"/>
</g>
<defs>
<clipPath id="clip0">
<rect width="82" height="82" fill="white" transform="translate(0 0.554321)"/>
</clipPath>
</defs>
</svg>
