<svg width="82" height="82" viewBox="0 0 82 82" fill="none" xmlns="http://www.w3.org/2000/svg">
<path d="M69.9915 12.0085C62.2474 4.2648 51.9515 0 41 0C30.0485 0 19.7526 4.2648 12.0085 12.0085C4.2648 19.7526 0 30.0485 0 41C0 51.9515 4.2648 62.2474 12.0085 69.9915C19.7526 77.7352 30.0485 82 41 82C51.9515 82 62.2474 77.7352 69.9915 69.9915C77.7352 62.2474 82 51.9515 82 41C82 30.0485 77.7352 19.7526 69.9915 12.0085ZM75.5905 38.5977V43.4023H69.1792V38.5977H75.5905ZM19.3755 22.7729L14.842 18.2394L18.2394 14.842L22.7729 19.3755L19.3755 22.7729ZM22.7729 62.6245L18.2394 67.158L14.842 63.7606L19.3755 59.2271L22.7729 62.6245ZM57.9593 38.5977V43.4023H38.5977V24.0407H43.4023V38.5977H57.9593ZM43.4023 12.8208H38.5977V6.40945H43.4023V12.8208ZM38.5977 69.1792H43.4023V75.5905H38.5977V69.1792ZM59.2271 62.6245L62.6245 59.2271L67.158 63.7606L63.7606 67.158L59.2271 62.6245ZM62.6245 22.7729L59.2271 19.3755L63.7606 14.842L67.158 18.2394L62.6245 22.7729ZM12.8208 38.5977V43.4023H6.40945V38.5977H12.8208Z" fill="#E00000"/>
</svg>
