<svg width="74" height="82" viewBox="0 0 74 82" fill="none" xmlns="http://www.w3.org/2000/svg">
<path d="M37.0003 48.2386C35.6365 48.2386 34.5309 47.1329 34.5309 45.7692V23.8478C23.525 25.0794 14.9399 34.4398 14.9399 45.7692C14.9399 57.9334 24.8362 67.8295 37.0003 67.8295C48.3296 67.8295 57.6901 59.2446 58.9216 48.2386H37.0003Z" fill="#E00000"/>
<path d="M39.4697 43.2998H58.9217C57.7809 33.1049 49.6647 24.9887 39.4697 23.8478V43.2998Z" fill="#E00000"/>
<path d="M62.6194 20.15C61.4293 18.9599 60.1696 17.8652 58.8517 16.8646L60.8906 13.896L63.0619 15.3872C63.4891 15.6806 63.9759 15.8213 64.4577 15.8213C65.2438 15.8213 66.0167 15.4468 66.4955 14.7498C67.2676 13.6256 66.9821 12.0883 65.8579 11.3164L61.6525 8.42817C61.652 8.42784 61.6515 8.42735 61.651 8.42702C61.6505 8.42669 61.65 8.42636 61.6496 8.42603L57.4444 5.538C56.3201 4.76607 54.7829 5.05137 54.0108 6.17543C53.2387 7.29966 53.5241 8.83694 54.6484 9.60887L56.8196 11.1L54.7236 14.1519C51.4594 12.3158 47.9311 11.0037 44.2439 10.2595V4.93877H45.6432C47.0069 4.93877 48.1126 3.83314 48.1126 2.46938C48.1126 1.10563 47.0069 0 45.6432 0H41.7745H32.2262H28.3575C26.9937 0 25.8881 1.10563 25.8881 2.46938C25.8881 3.83314 26.9937 4.93877 28.3575 4.93877H29.7568V10.2595C22.841 11.6553 16.484 15.0474 11.3813 20.1502C4.5383 26.9932 0.769531 36.0917 0.769531 45.7692C0.769531 55.4467 4.5383 64.5452 11.3813 71.3882C18.2243 78.2312 27.3227 82 37.0003 82C46.678 82 55.7764 78.2312 62.6194 71.3882C69.4624 64.5452 73.2311 55.4467 73.2311 45.7692C73.2311 36.0917 69.4624 26.9932 62.6194 20.15ZM37.0003 72.7681C22.1129 72.7681 10.0012 60.6565 10.0012 45.769C10.0012 30.8816 22.1131 18.7699 37.0003 18.7699C51.8876 18.7699 63.9994 30.8816 63.9994 45.769C63.9994 60.6565 51.8876 72.7681 37.0003 72.7681ZM34.6956 4.93877H39.3051V9.61265C38.5409 9.56491 37.7728 9.53824 37.0003 9.53824C36.2279 9.53824 35.4598 9.56491 34.6956 9.61265V4.93877Z" fill="#E00000"/>
</svg>
