<svg width="82" height="82" viewBox="0 0 82 82" fill="none" xmlns="http://www.w3.org/2000/svg">
<path d="M7.36719 28.9883H9.76953V14.5742H7.36719C3.38705 14.5742 0 17.8011 0 21.7812C0 25.7614 3.38705 28.9883 7.36719 28.9883Z" fill="#E00000"/>
<path d="M62.6211 14.5742H67.4258V28.9883H62.6211V14.5742Z" fill="#E00000"/>
<path d="M65.0234 48.3672C61.0496 48.3672 57.8164 51.6003 57.8164 55.5742C57.8164 59.5481 61.0496 62.7812 65.0234 62.7812H82V48.3672H65.0234ZM69.8281 57.9766H65.0234V53.1719H69.8281V57.9766Z" fill="#E00000"/>
<path d="M24.1836 9.76953H53.0117V0H14.5742V28.9883H24.1836V9.76953Z" fill="#E00000"/>
<path d="M28.9883 14.5742H57.8164V28.9883H28.9883V14.5742Z" fill="#E00000"/>
<path d="M53.0117 55.5742C53.0117 48.9515 58.4007 43.5625 65.0234 43.5625H77.0352V33.793C-24.5633 33.793 31.3168 33.793 7.36719 33.793C4.65266 33.793 2.01384 32.854 0 31.3293V69.9883C0 76.611 5.54916 82 12.1719 82H77.0352V67.586H65.0234C58.4007 67.586 53.0117 62.197 53.0117 55.5742Z" fill="#E00000"/>
</svg>
